<mxfile host="app.diagrams.net" modified="2021-06-26T22:22:12.930Z" agent="5.0 (Windows NT 10.0; Win64; x64) AppleWebKit/537.36 (KHTML, like Gecko) Chrome/91.0.4472.114 Safari/537.36" etag="y5bMaoDgc47cci-hOz8Q" version="14.8.1" type="github">
  <diagram name="Page-1" id="9f46799a-70d6-7492-0946-bef42562c5a5">
    <mxGraphModel dx="923" dy="375" grid="1" gridSize="10" guides="1" tooltips="1" connect="1" arrows="1" fold="1" page="1" pageScale="1" pageWidth="1100" pageHeight="850" background="none" math="0" shadow="0">
      <root>
        <mxCell id="0" />
        <mxCell id="1" parent="0" />
        <mxCell id="yaqRNdVOU31ufmRYn4F9-18" style="edgeStyle=orthogonalEdgeStyle;rounded=0;orthogonalLoop=1;jettySize=auto;html=1;" edge="1" parent="1" source="yaqRNdVOU31ufmRYn4F9-2">
          <mxGeometry relative="1" as="geometry">
            <mxPoint x="276" y="240" as="targetPoint" />
          </mxGeometry>
        </mxCell>
        <mxCell id="yaqRNdVOU31ufmRYn4F9-19" style="edgeStyle=orthogonalEdgeStyle;rounded=0;orthogonalLoop=1;jettySize=auto;html=1;" edge="1" parent="1" source="yaqRNdVOU31ufmRYn4F9-2" target="yaqRNdVOU31ufmRYn4F9-13">
          <mxGeometry relative="1" as="geometry" />
        </mxCell>
        <mxCell id="yaqRNdVOU31ufmRYn4F9-2" value="Select Login Method" style="rhombus;whiteSpace=wrap;html=1;" vertex="1" parent="1">
          <mxGeometry x="375" y="120" width="100" height="100" as="geometry" />
        </mxCell>
        <mxCell id="yaqRNdVOU31ufmRYn4F9-3" value="LOGIN" style="text;html=1;align=center;verticalAlign=middle;resizable=0;points=[];autosize=1;strokeColor=none;fontStyle=1" vertex="1" parent="1">
          <mxGeometry x="400" y="20" width="50" height="20" as="geometry" />
        </mxCell>
        <mxCell id="yaqRNdVOU31ufmRYn4F9-31" style="edgeStyle=orthogonalEdgeStyle;rounded=0;orthogonalLoop=1;jettySize=auto;html=1;exitX=0.5;exitY=1;exitDx=0;exitDy=0;" edge="1" parent="1" source="yaqRNdVOU31ufmRYn4F9-6" target="yaqRNdVOU31ufmRYn4F9-16">
          <mxGeometry relative="1" as="geometry">
            <Array as="points">
              <mxPoint x="570" y="580" />
              <mxPoint x="425" y="580" />
            </Array>
          </mxGeometry>
        </mxCell>
        <mxCell id="yaqRNdVOU31ufmRYn4F9-33" style="edgeStyle=orthogonalEdgeStyle;rounded=0;orthogonalLoop=1;jettySize=auto;html=1;" edge="1" parent="1" source="yaqRNdVOU31ufmRYn4F9-6" target="yaqRNdVOU31ufmRYn4F9-29">
          <mxGeometry relative="1" as="geometry" />
        </mxCell>
        <mxCell id="yaqRNdVOU31ufmRYn4F9-6" value="Credentials&lt;br&gt;exist in&lt;br&gt;database" style="rhombus;whiteSpace=wrap;html=1;" vertex="1" parent="1">
          <mxGeometry x="510" y="400" width="120" height="125" as="geometry" />
        </mxCell>
        <mxCell id="yaqRNdVOU31ufmRYn4F9-21" style="edgeStyle=orthogonalEdgeStyle;rounded=0;orthogonalLoop=1;jettySize=auto;html=1;entryX=0.5;entryY=0;entryDx=0;entryDy=0;" edge="1" parent="1" source="yaqRNdVOU31ufmRYn4F9-9" target="yaqRNdVOU31ufmRYn4F9-14">
          <mxGeometry relative="1" as="geometry" />
        </mxCell>
        <mxCell id="yaqRNdVOU31ufmRYn4F9-32" style="edgeStyle=orthogonalEdgeStyle;rounded=0;orthogonalLoop=1;jettySize=auto;html=1;entryX=0;entryY=0.5;entryDx=0;entryDy=0;" edge="1" parent="1" source="yaqRNdVOU31ufmRYn4F9-9" target="yaqRNdVOU31ufmRYn4F9-29">
          <mxGeometry relative="1" as="geometry" />
        </mxCell>
        <mxCell id="yaqRNdVOU31ufmRYn4F9-9" value="Mobile&lt;br&gt;number exist in&lt;br&gt;database" style="rhombus;whiteSpace=wrap;html=1;" vertex="1" parent="1">
          <mxGeometry x="210" y="305" width="120" height="120" as="geometry" />
        </mxCell>
        <mxCell id="yaqRNdVOU31ufmRYn4F9-45" style="edgeStyle=orthogonalEdgeStyle;rounded=0;orthogonalLoop=1;jettySize=auto;html=1;entryX=0.5;entryY=0;entryDx=0;entryDy=0;" edge="1" parent="1" source="yaqRNdVOU31ufmRYn4F9-10" target="yaqRNdVOU31ufmRYn4F9-2">
          <mxGeometry relative="1" as="geometry" />
        </mxCell>
        <mxCell id="yaqRNdVOU31ufmRYn4F9-10" value="START" style="ellipse;whiteSpace=wrap;html=1;" vertex="1" parent="1">
          <mxGeometry x="375" y="70" width="100" height="30" as="geometry" />
        </mxCell>
        <mxCell id="yaqRNdVOU31ufmRYn4F9-20" style="edgeStyle=orthogonalEdgeStyle;rounded=0;orthogonalLoop=1;jettySize=auto;html=1;entryX=0.5;entryY=0;entryDx=0;entryDy=0;" edge="1" parent="1" source="yaqRNdVOU31ufmRYn4F9-12" target="yaqRNdVOU31ufmRYn4F9-9">
          <mxGeometry relative="1" as="geometry" />
        </mxCell>
        <mxCell id="yaqRNdVOU31ufmRYn4F9-12" value="&lt;span&gt;Enter Mobile Number&lt;/span&gt;" style="shape=parallelogram;perimeter=parallelogramPerimeter;whiteSpace=wrap;html=1;fixedSize=1;" vertex="1" parent="1">
          <mxGeometry x="190" y="240" width="160" height="40" as="geometry" />
        </mxCell>
        <mxCell id="yaqRNdVOU31ufmRYn4F9-22" style="edgeStyle=orthogonalEdgeStyle;rounded=0;orthogonalLoop=1;jettySize=auto;html=1;entryX=0.5;entryY=0;entryDx=0;entryDy=0;" edge="1" parent="1" source="yaqRNdVOU31ufmRYn4F9-13" target="yaqRNdVOU31ufmRYn4F9-6">
          <mxGeometry relative="1" as="geometry" />
        </mxCell>
        <mxCell id="yaqRNdVOU31ufmRYn4F9-13" value="&lt;span&gt;Enter Email/Mobile and Password&lt;/span&gt;" style="shape=parallelogram;perimeter=parallelogramPerimeter;whiteSpace=wrap;html=1;fixedSize=1;" vertex="1" parent="1">
          <mxGeometry x="490" y="240" width="160" height="40" as="geometry" />
        </mxCell>
        <mxCell id="yaqRNdVOU31ufmRYn4F9-25" style="edgeStyle=orthogonalEdgeStyle;rounded=0;orthogonalLoop=1;jettySize=auto;html=1;entryX=0.5;entryY=0;entryDx=0;entryDy=0;" edge="1" parent="1" source="yaqRNdVOU31ufmRYn4F9-14" target="yaqRNdVOU31ufmRYn4F9-15">
          <mxGeometry relative="1" as="geometry" />
        </mxCell>
        <mxCell id="yaqRNdVOU31ufmRYn4F9-14" value="&lt;span&gt;Enter OTP&lt;/span&gt;" style="shape=parallelogram;perimeter=parallelogramPerimeter;whiteSpace=wrap;html=1;fixedSize=1;" vertex="1" parent="1">
          <mxGeometry x="190" y="450" width="160" height="40" as="geometry" />
        </mxCell>
        <mxCell id="yaqRNdVOU31ufmRYn4F9-24" style="edgeStyle=orthogonalEdgeStyle;rounded=0;orthogonalLoop=1;jettySize=auto;html=1;" edge="1" parent="1" source="yaqRNdVOU31ufmRYn4F9-15" target="yaqRNdVOU31ufmRYn4F9-16">
          <mxGeometry relative="1" as="geometry">
            <Array as="points">
              <mxPoint x="425" y="585" />
            </Array>
          </mxGeometry>
        </mxCell>
        <mxCell id="yaqRNdVOU31ufmRYn4F9-39" style="edgeStyle=orthogonalEdgeStyle;rounded=0;orthogonalLoop=1;jettySize=auto;html=1;entryX=0;entryY=0.5;entryDx=0;entryDy=0;" edge="1" parent="1" source="yaqRNdVOU31ufmRYn4F9-15" target="yaqRNdVOU31ufmRYn4F9-14">
          <mxGeometry relative="1" as="geometry">
            <Array as="points">
              <mxPoint x="160" y="585" />
              <mxPoint x="160" y="470" />
            </Array>
          </mxGeometry>
        </mxCell>
        <mxCell id="yaqRNdVOU31ufmRYn4F9-15" value="Validate OTP" style="rhombus;whiteSpace=wrap;html=1;" vertex="1" parent="1">
          <mxGeometry x="225" y="540" width="90" height="90" as="geometry" />
        </mxCell>
        <mxCell id="yaqRNdVOU31ufmRYn4F9-44" style="edgeStyle=orthogonalEdgeStyle;rounded=0;orthogonalLoop=1;jettySize=auto;html=1;entryX=0.5;entryY=0;entryDx=0;entryDy=0;" edge="1" parent="1" source="yaqRNdVOU31ufmRYn4F9-16" target="yaqRNdVOU31ufmRYn4F9-43">
          <mxGeometry relative="1" as="geometry" />
        </mxCell>
        <mxCell id="yaqRNdVOU31ufmRYn4F9-16" value="Login Successfull" style="whiteSpace=wrap;html=1;" vertex="1" parent="1">
          <mxGeometry x="365" y="650" width="120" height="40" as="geometry" />
        </mxCell>
        <mxCell id="yaqRNdVOU31ufmRYn4F9-26" value="Using OTP" style="text;html=1;align=center;verticalAlign=middle;resizable=0;points=[];autosize=1;strokeColor=none;" vertex="1" parent="1">
          <mxGeometry x="235" y="150" width="70" height="20" as="geometry" />
        </mxCell>
        <mxCell id="yaqRNdVOU31ufmRYn4F9-27" value="Using Password" style="text;html=1;align=center;verticalAlign=middle;resizable=0;points=[];autosize=1;strokeColor=none;" vertex="1" parent="1">
          <mxGeometry x="520" y="150" width="100" height="20" as="geometry" />
        </mxCell>
        <mxCell id="yaqRNdVOU31ufmRYn4F9-29" value="Registration" style="whiteSpace=wrap;html=1;" vertex="1" parent="1">
          <mxGeometry x="365" y="345" width="120" height="40" as="geometry" />
        </mxCell>
        <mxCell id="yaqRNdVOU31ufmRYn4F9-34" value="No" style="text;html=1;align=center;verticalAlign=middle;resizable=0;points=[];autosize=1;strokeColor=none;" vertex="1" parent="1">
          <mxGeometry x="326" y="345" width="30" height="20" as="geometry" />
        </mxCell>
        <mxCell id="yaqRNdVOU31ufmRYn4F9-35" value="No" style="text;html=1;align=center;verticalAlign=middle;resizable=0;points=[];autosize=1;strokeColor=none;" vertex="1" parent="1">
          <mxGeometry x="455" y="440" width="30" height="20" as="geometry" />
        </mxCell>
        <mxCell id="yaqRNdVOU31ufmRYn4F9-36" value="True" style="text;html=1;align=center;verticalAlign=middle;resizable=0;points=[];autosize=1;strokeColor=none;" vertex="1" parent="1">
          <mxGeometry x="349" y="564" width="40" height="20" as="geometry" />
        </mxCell>
        <mxCell id="yaqRNdVOU31ufmRYn4F9-37" value="Yes" style="text;html=1;align=center;verticalAlign=middle;resizable=0;points=[];autosize=1;strokeColor=none;" vertex="1" parent="1">
          <mxGeometry x="480" y="560" width="40" height="20" as="geometry" />
        </mxCell>
        <mxCell id="yaqRNdVOU31ufmRYn4F9-40" value="False" style="text;html=1;align=center;verticalAlign=middle;resizable=0;points=[];autosize=1;strokeColor=none;" vertex="1" parent="1">
          <mxGeometry x="170" y="564" width="40" height="20" as="geometry" />
        </mxCell>
        <mxCell id="yaqRNdVOU31ufmRYn4F9-41" value="Send OTP" style="text;html=1;align=center;verticalAlign=middle;resizable=0;points=[];autosize=1;strokeColor=none;" vertex="1" parent="1">
          <mxGeometry x="270" y="425" width="70" height="20" as="geometry" />
        </mxCell>
        <mxCell id="yaqRNdVOU31ufmRYn4F9-42" value="Yes" style="text;html=1;align=center;verticalAlign=middle;resizable=0;points=[];autosize=1;strokeColor=none;" vertex="1" parent="1">
          <mxGeometry x="235" y="425" width="40" height="20" as="geometry" />
        </mxCell>
        <mxCell id="yaqRNdVOU31ufmRYn4F9-43" value="END" style="ellipse;whiteSpace=wrap;html=1;" vertex="1" parent="1">
          <mxGeometry x="365" y="730" width="120" height="40" as="geometry" />
        </mxCell>
      </root>
    </mxGraphModel>
  </diagram>
</mxfile>
